<?xml version="1.0" encoding="UTF-8"?>
<svg version="1.1" xmlns="http://www.w3.org/2000/svg" width="563" height="443">
<path d="M0 0 C1.28689728 -0.01004562 2.57379456 -0.02009125 3.89968872 -0.03044128 C5.32907046 -0.03647137 6.75845282 -0.04235637 8.18783569 -0.04811096 C9.69089984 -0.05765031 11.19396179 -0.0675415 12.69702148 -0.07775879 C17.63712968 -0.10914008 22.57725467 -0.12941283 27.51742554 -0.14796448 C28.77894983 -0.15291046 28.77894983 -0.15291046 30.06595945 -0.15795636 C38.00088006 -0.18874133 45.93580452 -0.21544353 53.87076759 -0.23237514 C64.01184398 -0.25426927 74.15239008 -0.29621329 84.29325449 -0.36581272 C91.4280008 -0.41311255 98.56260435 -0.4373168 105.69750249 -0.44457203 C109.95636333 -0.44952003 114.21462643 -0.46451849 118.47331619 -0.50431633 C122.48396048 -0.54130165 126.49366866 -0.54955411 130.50445175 -0.5363102 C131.97136437 -0.53636395 133.43831972 -0.54658184 134.90507507 -0.56806183 C143.96987114 -0.69364631 149.9549012 0.04417389 156.85336304 6.16062927 C157.73765991 6.89926208 158.62195679 7.6378949 159.53305054 8.39891052 C160.61973022 9.4256488 160.61973022 9.4256488 161.72836304 10.47312927 C165.08425502 13.57127225 168.48712971 16.54131866 172.04086304 19.41062927 C176.68303213 23.17741791 181.25567239 27.01626287 185.79086304 30.91062927 C186.74932129 31.72515564 186.74932129 31.72515564 187.72714233 32.55613708 C188.63846924 33.34262634 188.63846924 33.34262634 189.56820679 34.14500427 C190.10566528 34.60616638 190.64312378 35.06732849 191.1968689 35.54246521 C195.17944091 39.43288338 197.43025391 42.99286039 199.11898804 48.29734802 C199.32106873 48.92848007 199.52314941 49.55961212 199.73135376 50.20986938 C203.25422075 61.39212635 206.38894888 72.69957661 209.60336304 83.97312927 C210.62801103 87.56132058 211.65360767 91.14923145 212.68154907 94.73648071 C213.31683549 96.95392893 213.95016429 99.17193914 214.58132935 101.39056396 C215.00747528 102.87933296 215.00747528 102.87933296 215.44223022 104.3981781 C215.69140198 105.27226822 215.94057373 106.14635834 216.19729614 107.04693604 C216.79887883 109.18663627 216.79887883 109.18663627 217.85336304 111.16062927 C218.1407132 110.17773926 218.42806335 109.19484924 218.72412109 108.18217468 C221.45872485 98.82872123 224.1940767 89.47548681 226.93012428 80.1224556 C228.3360537 75.31627613 229.74173743 70.51002512 231.14682007 65.70359802 C232.50784447 61.04791888 233.86956591 56.39244409 235.23173141 51.73709869 C235.74615684 49.97856871 236.26034889 48.21997043 236.77428055 46.46129608 C237.01852139 45.62555809 237.26276222 44.7898201 237.5144043 43.92875671 C237.7556069 43.10313107 237.9968095 42.27750542 238.24532127 41.42686081 C238.72418887 39.79369517 239.20557711 38.16126631 239.68959999 36.52962112 C240.95240258 32.27106517 242.17443265 28.00626199 243.34036255 23.72007751 C243.71755212 22.37347864 243.71755212 22.37347864 244.10236168 20.99967575 C244.57970153 19.29541645 245.04324969 17.58720388 245.4896946 15.87459183 C247.26615245 9.63513759 250.10851588 4.60453154 255.65220737 0.98669624 C258.56391735 -0.10603313 261.02319549 -0.09751159 264.13371277 -0.10679626 C265.42487503 -0.11532623 266.71603729 -0.1238562 268.04632568 -0.13264465 C269.47525037 -0.13194564 270.90417495 -0.13102258 272.33309937 -0.12989807 C273.83955722 -0.13588317 275.34601201 -0.14268867 276.85246277 -0.1502533 C280.94349093 -0.16792388 285.03443542 -0.17260916 289.12549806 -0.17388487 C291.68245135 -0.17530659 294.23938339 -0.17957662 296.79633141 -0.1848793 C305.71973394 -0.20338407 314.64307672 -0.21154948 323.5664978 -0.2099762 C331.87920734 -0.20877513 340.19165709 -0.22986946 348.50430089 -0.26146352 C355.64499627 -0.28763436 362.78560686 -0.29834313 369.92634982 -0.29706538 C374.18943995 -0.29655592 378.45229928 -0.30222991 382.71534157 -0.32342148 C386.72669271 -0.34281722 390.73759325 -0.34291946 394.74896049 -0.32838821 C396.21829513 -0.32630055 397.68765806 -0.33099857 399.15694427 -0.34310913 C412.82767191 -0.4484595 412.82767191 -0.4484595 418.85336304 4.16062927 C419.47162964 4.61639343 420.08989624 5.07215759 420.72689819 5.54173279 C421.19402222 5.95350769 421.66114624 6.36528259 422.14242554 6.78953552 C422.95550171 7.49723083 422.95550171 7.49723083 423.78500366 8.21922302 C424.34381226 8.71551208 424.90262085 9.21180115 425.47836304 9.72312927 C426.70974692 10.79779157 427.94152657 11.87200053 429.17367554 12.94578552 C429.78888062 13.48477478 430.40408569 14.02376404 431.03793335 14.5790863 C433.78348688 16.97092274 436.56822413 19.3151591 439.35336304 21.66062927 C440.41332628 22.56028944 441.47322146 23.46002981 442.53305054 24.35984802 C444.89668006 26.36230812 447.28068879 28.33790141 449.67367554 30.30516052 C450.94200546 31.36102909 452.21023692 32.41701594 453.47836304 33.47312927 C454.07068726 33.95266052 454.66301147 34.43219177 455.27328491 34.92625427 C459.55092604 38.51331222 462.19426137 41.6753619 463.2671814 47.34886169 C464.02098289 57.00065786 459.63115272 65.57170024 456.04086304 74.28562927 C455.31517317 76.08815524 454.59167593 77.89156527 453.87020874 79.69578552 C452.33352433 83.53608513 450.78898738 87.37309556 449.24008179 91.20848083 C445.64651348 100.1370313 442.18956481 109.11857384 438.72387695 118.09733582 C436.72371052 123.27656209 434.71567471 128.45273726 432.70883179 133.62937927 C431.89808257 135.72181185 431.08737292 137.81425977 430.27670288 139.90672302 C426.69892102 149.14059014 423.11828771 158.37335154 419.5378418 167.60618591 C417.55956279 172.70762073 415.58147256 177.80912874 413.60336304 182.91062927 C412.81169727 184.95229629 412.02003061 186.99396296 411.22836304 189.03562927 C410.83648804 190.04625427 410.44461304 191.05687927 410.04086304 192.09812927 C368.47836304 299.28562926 368.47836304 299.28562926 367.29090881 302.3480072 C366.49908595 304.39007937 365.7072667 306.43215294 364.91545105 308.47422791 C362.93870377 313.57220187 360.96189417 318.67015165 358.98495483 323.76805115 C354.58274493 335.12017872 350.18203565 346.47288565 345.78352356 357.82644653 C343.79080934 362.96949444 341.79692076 368.11208133 339.80038452 373.25364685 C339.02116747 375.2604008 338.24195197 377.26715536 337.46273804 379.27391052 C337.08069717 380.2576918 336.69865631 381.24147308 336.30503845 382.25506592 C333.98684647 388.2282771 331.67956606 394.20557387 329.38066101 400.18623352 C327.91114695 404.00634276 326.43603027 407.82427365 324.9598999 411.64183044 C324.27223908 413.42434957 323.58713472 415.20785736 322.90478516 416.99241638 C321.968491 419.44042605 321.02329335 421.88482021 320.07601929 424.32859802 C319.67259308 425.39378914 319.67259308 425.39378914 319.26101685 426.48049927 C316.47977242 433.60021947 312.92498799 439.62481679 305.85336304 443.16062927 C304.18411379 443.26201101 302.51085405 443.30007933 300.83854675 443.30780029 C299.77731598 443.3149556 298.71608521 443.3221109 297.62269592 443.32948303 C295.86866203 443.33351639 295.86866203 443.33351639 294.07919312 443.33763123 C292.85144165 443.34420242 291.62369019 443.35077362 290.35873413 443.35754395 C286.28011841 443.37731628 282.20154207 443.38894932 278.12289429 443.39891052 C276.71828377 443.40295816 275.31367345 443.40707509 273.90906334 443.4112606 C267.30800895 443.43031683 260.70696576 443.44454518 254.10588914 443.45287257 C246.49106962 443.46263764 238.87654136 443.48893592 231.26182443 443.52937347 C225.37382286 443.5595657 219.4859046 443.5743445 213.59782714 443.57765359 C210.08249507 443.58000119 206.56747399 443.58892275 203.05222511 443.61411476 C199.12622463 443.64179472 195.20060482 443.63755479 191.27450562 443.63059998 C189.53565346 443.64981506 189.53565346 443.64981506 187.76167297 443.66941833 C178.57210819 443.61007779 173.81920563 441.33002166 167.10336304 434.97312927 C163.70640055 431.8315775 160.26698322 428.81613932 156.66586304 425.91062927 C151.35960761 421.61869371 146.2043609 417.16897115 141.06747437 412.67723083 C140.46314575 412.14968201 139.85881714 411.62213318 139.23617554 411.07859802 C138.70395386 410.6121991 138.17173218 410.14580017 137.62338257 409.66526794 C135.79652414 408.0545006 135.79652414 408.0545006 133.3777771 406.50120544 C129.97741737 403.34847346 128.74027252 400.06080902 127.07992554 395.79344177 C126.74143585 394.95660858 126.40294617 394.11977539 126.05419922 393.25758362 C124.97095966 390.56476768 123.91035477 387.86384485 122.85336304 385.16062927 C122.16434369 383.41807344 121.47521665 381.67556019 120.78598022 379.93309021 C118.57341505 374.31085384 116.40025105 368.67367511 114.22836304 363.03562927 C113.40699558 360.90988273 112.58537398 358.78423436 111.76351929 356.65867615 C109.57473996 350.995614 107.38950897 345.33118965 105.20529175 339.66636658 C102.93573782 333.78110074 100.66393777 327.89670198 98.39242554 322.01219177 C95.6126368 314.81042715 92.83316751 307.60853971 90.05477905 300.40623474 C81.78855864 278.97987457 73.48880378 257.56660801 65.18002319 236.15672302 C61.63271726 227.01562437 58.08844357 217.87334987 54.54388428 208.73118591 C52.56382933 203.62428764 50.58358688 198.51746206 48.60336304 193.41062927 C47.81169547 191.36896296 47.0200288 189.32729629 46.22836304 187.28562927 C45.64055054 185.76969177 45.64055054 185.76969177 45.04086304 184.22312927 C22.47836303 126.03562927 22.47836303 126.03562927 21.29107666 122.97366333 C20.49871307 120.93021059 19.70633431 118.88676374 18.91394043 116.84332275 C16.94531269 111.76653088 14.97694136 106.68963991 13.00912476 101.61253357 C9.3214 92.09874817 5.63110229 82.5859838 1.93215942 73.07655334 C0.19716544 68.61569566 -1.53643254 64.15429604 -3.26992798 59.69285583 C-4.09166094 57.57914134 -4.91406751 55.46568857 -5.73721313 53.3525238 C-7.91629967 47.75816849 -10.08557526 42.16033213 -12.23049927 36.55278015 C-12.81728491 35.02060894 -13.40694541 33.48953376 -14.00027466 31.95988464 C-14.74050794 30.04562791 -15.46375281 28.12482606 -16.18569946 26.20359802 C-16.57193481 25.18676941 -16.95817017 24.1699408 -17.35610962 23.12229919 C-18.99530736 16.98112941 -18.32919157 12.39493132 -15.35757446 6.95750427 C-11.38964364 1.06960692 -6.69639445 0.04103814 0 0 Z " fill="#3B00F7" transform="translate(59.146636962890625,-0.1606292724609375)"/>
<path d="M0 0 C4.58077282 2.49068636 8.25074224 5.6858352 12.125 9.125 C16.62786192 13.07948217 21.14880516 16.98444896 25.8125 20.75 C29.43827191 23.70272443 33.03206168 26.68356215 36.5625 29.75 C37.36816406 30.44609375 38.17382812 31.1421875 39.00390625 31.859375 C43.0039518 36.14905203 43.61056289 40.93885917 43.48681641 46.61230469 C42.40270848 54.15647798 39.07337636 61.12074017 36.1875 68.125 C35.46181014 69.92752597 34.7383129 71.730936 34.0168457 73.53515625 C32.48016129 77.37545586 30.93562434 81.21246629 29.38671875 85.04785156 C25.79315045 93.97640203 22.33620177 102.95794457 18.87051392 111.93670654 C16.87034748 117.11593282 14.86231167 122.29210799 12.85546875 127.46875 C12.04471953 129.56118258 11.23400988 131.65363049 10.42333984 133.74609375 C6.84555798 142.97996087 3.26492467 152.21272227 -0.31552124 161.44555664 C-2.29380025 166.54699145 -4.27189047 171.64849947 -6.25 176.75 C-7.04166576 178.79166702 -7.83333243 180.83333368 -8.625 182.875 C-9.016875 183.885625 -9.40875 184.89625 -9.8125 185.9375 C-51.37499997 293.12499994 -51.37499997 293.12499994 -52.56245422 296.18737793 C-53.35427709 298.2294501 -54.14609634 300.27152367 -54.93791199 302.31359863 C-56.91465927 307.4115726 -58.89146887 312.50952238 -60.8684082 317.60742188 C-65.27061811 328.95954944 -69.67132739 340.31225638 -74.06983948 351.66581726 C-76.0625537 356.80886517 -78.05644228 361.95145205 -80.05297852 367.09301758 C-80.83219557 369.09977153 -81.61141107 371.10652609 -82.390625 373.11328125 C-82.77266586 374.09706253 -83.15470673 375.08084381 -83.54832458 376.09443665 C-85.86651657 382.06764783 -88.17379698 388.0449446 -90.47270203 394.02560425 C-91.94221609 397.84571349 -93.41733277 401.66364438 -94.89346313 405.48120117 C-95.58112396 407.2637203 -96.26622832 409.04722809 -96.94857788 410.83178711 C-97.88487204 413.27979678 -98.83006969 415.72419094 -99.77734375 418.16796875 C-100.04629456 418.87809616 -100.31524536 419.58822357 -100.59234619 420.31987 C-103.37359062 427.43959019 -106.92837504 433.46418752 -114 437 C-115.66924924 437.10138174 -117.34250899 437.13945006 -119.01481628 437.14717102 C-120.07604706 437.15432632 -121.13727783 437.16148163 -122.23066711 437.16885376 C-123.984701 437.17288712 -123.984701 437.17288712 -125.77416992 437.17700195 C-127.00192139 437.18357315 -128.22967285 437.19014435 -129.49462891 437.19691467 C-133.57324463 437.21668701 -137.65182097 437.22832004 -141.73046875 437.23828125 C-143.13507927 437.24232889 -144.53968959 437.24644581 -145.9442997 437.25063133 C-152.54535409 437.26968756 -159.14639728 437.28391591 -165.7474739 437.2922433 C-173.36229342 437.30200837 -180.97682168 437.32830665 -188.59153861 437.36874419 C-194.47954018 437.39893643 -200.36745844 437.41371523 -206.2555359 437.41702431 C-209.77086797 437.41937192 -213.28588905 437.42829347 -216.80113792 437.45348549 C-220.72713841 437.48116545 -224.65275822 437.47692552 -228.57885742 437.4699707 C-229.73809219 437.48278076 -230.89732697 437.49559082 -232.09169006 437.50878906 C-241.28125485 437.44944852 -246.03415741 435.16939239 -252.75 428.8125 C-256.16814695 425.65174364 -259.63009414 422.61536504 -263.25 419.6875 C-269.9527155 414.26378186 -276.4723591 408.63187704 -283 403 C-280.30187072 401.65093536 -278.91871072 402.3806925 -276 403 C-274.28814827 403.0944771 -272.57335475 403.14301069 -270.8589325 403.15390015 C-269.33879547 403.16680084 -269.33879547 403.16680084 -267.78794861 403.17996216 C-266.68705399 403.18422211 -265.58615936 403.18848206 -264.4519043 403.19287109 C-262.69981155 403.20513733 -262.69981155 403.20513733 -260.912323 403.21765137 C-257.04962675 403.2424501 -253.18696707 403.25900545 -249.32421875 403.2734375 C-247.99051216 403.27880123 -246.65680562 403.28417874 -245.32309914 403.28956985 C-239.77358149 403.31117939 -234.22406663 403.32991466 -228.67451763 403.34119225 C-220.74022338 403.35742684 -212.80641902 403.39061399 -204.87230939 403.44759309 C-199.28232093 403.48636086 -193.69246317 403.50583278 -188.10234386 403.51111281 C-184.76846679 403.51475624 -181.43552814 403.52918983 -178.10172081 403.55921555 C-174.37952803 403.5908326 -170.6585711 403.59090828 -166.9362793 403.58349609 C-165.2940464 403.6081041 -165.2940464 403.6081041 -163.61863708 403.63320923 C-156.86026955 403.57819384 -152.12327216 402.59867259 -147 398 C-145.22153146 395.83548382 -145.22153146 395.83548382 -144.28955078 393.42016602 C-143.90301331 392.54667511 -143.51647583 391.6731842 -143.1182251 390.77322388 C-142.74921082 389.85806 -142.38019653 388.94289612 -142 388 C-141.62405701 387.0923288 -141.24811401 386.18465759 -140.86077881 385.2494812 C-139.65871118 382.27208709 -138.50783819 379.27878293 -137.3671875 376.27734375 C-136.93776352 375.15993301 -136.50833954 374.04252228 -136.06590271 372.89125061 C-134.90575655 369.87018482 -133.74994505 366.84750471 -132.59592056 363.82409668 C-131.37409603 360.62667074 -130.1462706 357.4315519 -128.91870117 354.23632812 C-127.41000006 350.30858677 -125.90159562 346.3807343 -124.39549255 342.45199585 C-120.11446059 331.28553575 -115.80004687 320.13218826 -111.47125244 308.98416138 C-110.3056667 305.98240206 -109.14076731 302.98037725 -107.97607422 299.97827148 C-106.42648722 295.98412772 -104.87667262 291.99007242 -103.32666016 287.99609375 C-99.77935422 278.85499509 -96.23508054 269.71272059 -92.69052124 260.57055664 C-90.71046629 255.46365836 -88.73022385 250.35683279 -86.75 245.25 C-85.95833243 243.20833368 -85.16666576 241.16666702 -84.375 239.125 C-82.79166667 235.04166667 -81.20833333 230.95833333 -79.625 226.875 C-79.23310989 225.86433472 -78.84121979 224.85366943 -78.43745422 223.81237793 C-77.64594375 221.77111676 -76.85442968 219.729857 -76.06291199 217.68859863 C-74.08132588 212.57823927 -72.09980287 207.46785546 -70.1184082 202.35742188 C-66.58486323 193.24384443 -63.0509295 184.13041908 -59.51454163 175.01794434 C-57.57187434 170.01208706 -55.62958944 165.00608148 -53.6875 160 C-53.30145599 159.00492432 -52.91541199 158.00984863 -52.51766968 156.98461914 C-45.4576153 138.78362404 -38.43038686 120.57003319 -31.40701294 102.3548584 C-25.68051646 87.50527747 -19.93265773 72.66446092 -14.13729858 57.84161377 C-13.14528046 55.30192056 -12.15580604 52.76125209 -11.16723633 50.22021484 C-8.56451025 43.53385385 -5.95325429 36.85436327 -3.2421875 30.2109375 C-2.85272949 29.23995117 -2.46327148 28.26896484 -2.06201172 27.26855469 C-1.3995728 25.61961478 -0.72374352 23.97591521 -0.02783203 22.34082031 C2.53701111 15.88772862 3.36922562 8.8001257 0.98046875 2.17041016 C0.65691406 1.4541748 0.33335937 0.73793945 0 0 Z " fill="#000001" transform="translate(479,6)"/>
<path d="M0 0 C5.77880221 4.07331044 10.95243209 8.63472699 16.14453125 13.42578125 C18.86510508 15.87839159 21.64856676 18.20176921 24.5 20.5 C26.3349744 21.99799201 28.1682747 23.49803678 30 25 C30.98871094 25.80308594 31.97742188 26.60617188 32.99609375 27.43359375 C33.96675781 28.25988281 34.93742187 29.08617188 35.9375 29.9375 C36.81277344 30.66839844 37.68804687 31.39929688 38.58984375 32.15234375 C44.68885538 39.35846932 46.5335393 49.83397756 49.0390625 58.7421875 C49.40912378 60.04127103 49.77977096 61.34018778 50.15097046 62.63894653 C51.11789933 66.02594914 52.0792393 69.41450669 53.03863525 72.8036499 C54.57977039 78.2477535 56.12542761 83.69054306 57.67890549 89.13113785 C58.2173707 91.02240289 58.75077405 92.91510676 59.28408813 94.80783081 C59.61137909 95.95647614 59.93867004 97.10512146 60.27587891 98.28857422 C60.56137604 99.29765839 60.84687317 100.30674255 61.14102173 101.34640503 C61.91586715 103.97970557 61.91586715 103.97970557 63.12976074 106.21051025 C64.39448966 108.81119669 63.68660486 110.22469836 62.8046875 112.9296875 C62.50280518 113.88311035 62.20092285 114.8365332 61.88989258 115.81884766 C61.55497803 116.82737793 61.22006348 117.8359082 60.875 118.875 C60.20875182 120.96325997 59.54338384 123.05180096 58.87890625 125.140625 C58.55293457 126.15060547 58.22696289 127.16058594 57.89111328 128.20117188 C56.79043993 131.65819088 55.78879768 135.13088197 54.8125 138.625 C52.98349869 145.11755878 51.01065293 151.56163265 49 158 C48.34 158 47.68 158 47 158 C44.39023677 150.54551674 42.18131202 143.05831871 40.1875 135.41796875 C37.94226069 126.94533054 35.39480068 118.55368279 32.92333984 110.14501953 C31.44181395 105.09874332 29.97130582 100.04926346 28.5 95 C27.91672296 92.99998358 27.33338954 90.99998361 26.75 89 C16.25 53 16.25 53 15.37426758 49.99633789 C14.79420156 48.00830375 14.21331748 46.02050811 13.6315918 44.03295898 C12.11626783 38.85159725 10.61790254 33.66611641 9.14453125 28.47265625 C8.83773437 27.39951172 8.5309375 26.32636719 8.21484375 25.22070312 C7.63268767 23.18315684 7.0554926 21.14418347 6.484375 19.10351562 C4.95400209 13.76938974 3.15843176 8.7827933 0.75854492 3.77514648 C0 2 0 2 0 0 Z " fill="#000003" transform="translate(214,5)"/>
<path d="M0 0 C3.75212276 2.01502889 5.63644095 3.45466142 8 7 C9.08444506 14.264486 7.24357315 20.32401596 4.51171875 26.97265625 C3.95603714 28.38479904 3.95603714 28.38479904 3.38912964 29.82546997 C2.17099421 32.91099156 0.92950568 35.98651849 -0.3125 39.0625 C-1.16909839 41.21783128 -2.02397057 43.37384933 -2.87719727 45.53051758 C-4.20873216 48.894339 -5.54196766 52.257411 -6.88188171 55.61790466 C-10.10068282 63.69329714 -13.24583259 71.79456661 -16.3515625 79.9140625 C-17.21311167 82.16138581 -18.0746836 84.40870039 -18.9362793 86.65600586 C-20.18075756 89.90318976 -21.42358569 93.1509493 -22.66079712 96.40090942 C-23.80740564 99.40926576 -24.96321856 102.41393423 -26.12109375 105.41796875 C-26.45577667 106.30332306 -26.79045959 107.18867737 -27.13528442 108.1008606 C-29.5016996 114.20650868 -32.00757207 120.64560486 -38 124 C-42.77153538 124.86120395 -46.79427124 124.70334178 -51 122.25 C-54.54091227 118.26647369 -55.29707003 115.72546571 -55.23696899 110.30392456 C-54.79543127 106.01108615 -53.12457147 102.1947878 -51.51171875 98.22265625 C-51.14126434 97.27839783 -50.77080994 96.3341394 -50.38912964 95.36126709 C-49.16787555 92.25652492 -47.92789252 89.15964003 -46.6875 86.0625 C-45.83126296 83.89790833 -44.97638404 81.73277898 -44.12280273 79.56713867 C-42.79053135 76.18826356 -41.4569621 72.809947 -40.11811829 69.43367004 C-36.90818233 61.33522022 -33.76164207 53.2142079 -30.6484375 45.078125 C-29.78693836 42.83192182 -28.92536717 40.58574628 -28.0637207 38.33959961 C-26.81900704 35.09415098 -25.57605253 31.84809429 -24.33920288 28.59963989 C-23.19255324 25.59111706 -22.03674619 22.58626183 -20.87890625 19.58203125 C-20.54422333 18.69666687 -20.20954041 17.81130249 -19.86471558 16.89910889 C-16.29675428 7.69343354 -11.63375096 -2.29943023 0 0 Z " fill="#EAEAEA" transform="translate(377,213)"/>
<path d="M0 0 C3.89423016 2.13800871 6.65114833 4.23233331 9 8 C9.8562083 12.74385682 9.68406186 16.78389003 7.3125 21 C3.1526037 24.59774816 -0.67149079 25.46292288 -6.0703125 25.3203125 C-9.21716686 24.79796016 -10.85424542 23.27197543 -13 21 C-15.50725303 16.76513447 -15.82631756 12.81601244 -15 8 C-13.31914939 4.83250064 -10.98835778 2.7014152 -8.0625 0.625 C-5.15227888 -0.25688519 -3.03383286 -0.36405994 0 0 Z " fill="#E8E8EA" transform="translate(389,179)"/>
</svg>
