<?xml version="1.0" encoding="UTF-8"?>
<svg version="1.1" xmlns="http://www.w3.org/2000/svg" width="563" height="443">
<path d="M0 0 C0.93205261 0.00337372 1.86410522 0.00674744 2.82440186 0.01022339 C57.28583455 0.29433059 106.53341112 20.30007814 147.8125 55.4375 C148.80121094 56.27152344 149.78992188 57.10554688 150.80859375 57.96484375 C155.31469313 61.85232106 155.31469313 61.85232106 156.8125 63.4375 C156.8125 64.0975 156.8125 64.7575 156.8125 65.4375 C157.8025 65.7675 158.7925 66.0975 159.8125 66.4375 C161.25 67.828125 161.25 67.828125 162.8125 69.6875 C163.42738281 70.41710937 164.04226563 71.14671875 164.67578125 71.8984375 C165.38089844 72.73632812 166.08601563 73.57421875 166.8125 74.4375 C167.63105469 75.35789062 168.44960938 76.27828125 169.29296875 77.2265625 C193.73176309 104.88559071 209.55130534 139.23829447 217.5625 175.0625 C217.86075684 176.38386963 217.86075684 176.38386963 218.16503906 177.73193359 C221.34215148 192.69923935 222.22535161 207.61714422 222.1875 222.875 C222.18662384 223.74601349 222.18574768 224.61702698 222.18484497 225.51443481 C222.01129723 278.11861811 202.28327214 333.36752874 164.90478516 371.37744141 C163.68503336 372.58165496 162.45873203 373.77929656 161.22387695 374.96801758 C159.70621 376.4025526 159.70621 376.4025526 158.8125 378.4375 C158.1525 378.4375 157.4925 378.4375 156.8125 378.4375 C156.8125 379.0975 156.8125 379.7575 156.8125 380.4375 C155.37890625 381.8828125 155.37890625 381.8828125 153.375 383.5625 C150.43954696 386.04791843 147.57485532 388.57746258 144.75 391.1875 C121.99439162 411.31150741 94.6048136 425.26935929 65.8125 434.4375 C65.08804687 434.67452637 64.36359375 434.91155273 63.6171875 435.15576172 C29.00358312 446.33972384 -11.74793989 447.48721167 -47.1875 439.4375 C-48.60699951 439.11604004 -48.60699951 439.11604004 -50.05517578 438.78808594 C-97.75938029 427.57796502 -141.59854573 400.86555903 -172.1875 362.4375 C-172.84492188 361.64730469 -173.50234375 360.85710937 -174.1796875 360.04296875 C-206.35228559 321.08699155 -221.95720348 271.26850962 -221.625 221.1875 C-221.62195862 220.20748016 -221.61891724 219.22746033 -221.61578369 218.21774292 C-221.54594027 202.95416117 -220.75144769 188.33881554 -217.1875 173.4375 C-216.97319336 172.50583008 -216.75888672 171.57416016 -216.53808594 170.61425781 C-211.97928245 151.20450496 -204.59114654 132.98479708 -195.1875 115.4375 C-194.86813477 114.83744141 -194.54876953 114.23738281 -194.21972656 113.61914062 C-186.51797563 99.27902771 -176.93824617 86.61158439 -166.1875 74.4375 C-165.73761719 73.92445312 -165.28773438 73.41140625 -164.82421875 72.8828125 C-154.39153043 61.03705112 -142.95560953 50.71290415 -130.1875 41.4375 C-128.60001953 40.27154297 -128.60001953 40.27154297 -126.98046875 39.08203125 C-89.95641262 12.74516434 -45.16223867 -0.32066358 0 0 Z M-116.1875 113.4375 C-110.36931434 130.09671215 -110.36931434 130.09671215 -104.20605469 146.6184082 C-102.17991216 151.88048611 -100.1647945 157.14673403 -98.15234375 162.4140625 C-97.7705899 163.41292984 -97.38883606 164.41179718 -96.99551392 165.44093323 C-91.71215699 179.2808062 -86.49949008 193.14743504 -81.28019333 207.01155853 C-80.43647947 209.25271083 -79.59266231 211.49382421 -78.74880981 213.73492432 C-78.46989804 214.47565752 -78.19098627 215.21639072 -77.90362263 215.97957039 C-77.48545418 217.09013959 -77.48545418 217.09013959 -77.05883789 218.22314453 C-75.38070923 222.67997122 -73.70262563 227.13681485 -72.02470398 231.59371948 C-68.51796695 240.90778042 -65.00715854 250.22029308 -61.4921875 259.53125 C-60.83009026 261.28513283 -60.83009026 261.28513283 -60.15461731 263.07444763 C-58.4620337 267.55765788 -56.76926109 272.04079656 -55.07589722 276.52371216 C-51.14294428 286.93575058 -47.21394169 297.34906535 -43.32421875 307.77734375 C-43.03329346 308.55660721 -42.74236816 309.33587067 -42.44262695 310.13874817 C-41.13213058 313.64952208 -39.824184 317.16119328 -38.52197266 320.67504883 C-38.08804199 321.83931396 -37.65411133 323.0035791 -37.20703125 324.203125 C-36.83682861 325.20118164 -36.46662598 326.19923828 -36.08520508 327.22753906 C-35.37990874 329.37475952 -35.37990874 329.37475952 -34.1875 330.4375 C-31.97882169 330.53182985 -29.76708479 330.55492431 -27.55639648 330.55102539 C-26.86374695 330.55117142 -26.17109741 330.55131744 -25.4574585 330.5514679 C-23.15780554 330.55076874 -20.85823263 330.54297628 -18.55859375 330.53515625 C-16.96818588 330.53329208 -15.37777743 330.53186817 -13.78736877 330.53086853 C-9.5935407 330.52704329 -5.39974705 330.51721295 -1.20593262 330.50616455 C3.07038914 330.49595057 7.34671644 330.49137094 11.62304688 330.48632812 C20.01954708 330.47559069 28.41601926 330.45851419 36.8125 330.4375 C37.09746338 329.65991585 37.09746338 329.65991585 37.38818359 328.86662292 C45.65468427 306.31235276 53.92452047 283.7594303 62.3125 261.25 C62.62272095 260.41750732 62.93294189 259.58501465 63.25256348 258.72729492 C64.59700764 255.11973431 65.94153309 251.51220401 67.28619385 247.90472412 C76.34382581 223.59910052 85.36321533 199.27920644 94.39012337 174.96216011 C96.23830392 169.98365778 98.08723441 165.00543442 99.93652344 160.02734375 C102.33038751 153.58323407 104.72252331 147.13848524 107.11340332 140.69326782 C107.9923164 138.32471173 108.87178745 135.9563626 109.75183105 133.58822632 C110.95325466 130.35494943 112.15268063 127.12093879 113.3515625 123.88671875 C113.88388992 122.45622192 113.88388992 122.45622192 114.42697144 120.99682617 C114.74449371 120.13895508 115.06201599 119.28108398 115.38916016 118.3972168 C115.66603668 117.65126755 115.94291321 116.9053183 116.22817993 116.13676453 C116.86669638 114.57937827 116.86669638 114.57937827 116.8125 113.4375 C96.0225 113.4375 75.2325 113.4375 53.8125 113.4375 C41.89415384 151.1446814 30.14969313 188.89875881 18.5680027 226.71028614 C16.87732845 232.22870308 15.18102457 237.74538085 13.48417664 243.26190186 C12.14874984 247.60634968 10.81695583 251.95190369 9.48641968 256.29785156 C8.87583139 258.29013409 8.26389654 260.28200449 7.65054321 262.2734375 C6.82037054 264.97016389 5.99539961 267.66842485 5.171875 270.3671875 C4.92920395 271.15133026 4.6865329 271.93547302 4.43650818 272.74337769 C3.52505374 275.74674583 2.8125 278.2796844 2.8125 281.4375 C2.1525 281.4375 1.4925 281.4375 0.8125 281.4375 C0.58191895 280.27573242 0.35133789 279.11396484 0.11376953 277.91699219 C-1.48636558 270.7417375 -3.79752212 263.77028993 -6.0078125 256.765625 C-6.50061623 255.19406662 -6.99306901 253.62239816 -7.48519897 252.05062866 C-8.81392631 247.80992581 -10.1470638 243.57062129 -11.48098755 239.3315506 C-12.87604607 234.89553126 -14.26708294 230.45825176 -15.65820312 226.02099609 C-16.22820558 224.20297089 -16.79821294 222.38494722 -17.3682251 220.56692505 C-17.65321114 219.65795597 -17.93819717 218.74898689 -18.23181915 217.8124733 C-19.10775922 215.01930258 -19.9842144 212.22629393 -20.86077881 209.43331909 C-24.9745967 196.32308478 -29.06761359 183.2064766 -33.1484375 170.0859375 C-33.70792633 168.28759446 -34.26742534 166.48925459 -34.82693481 164.69091797 C-36.97921397 157.77253202 -39.13120388 150.85405715 -41.28033447 143.93469238 C-42.52709677 139.92074276 -43.77543234 135.90728572 -45.02492142 131.89418411 C-45.48329513 130.42086759 -45.94104764 128.94735765 -46.39814377 127.47364426 C-47.01973311 125.46973467 -47.64339512 123.46648185 -48.26757812 121.46337891 C-48.61630981 120.34121979 -48.9650415 119.21906067 -49.32434082 118.06289673 C-50.09790684 115.49544558 -50.09790684 115.49544558 -51.1875 113.4375 C-72.6375 113.4375 -94.0875 113.4375 -116.1875 113.4375 Z " fill="#000000" transform="translate(281.1875,-0.4375)"/>
</svg>
